<?xml version="1.0" standalone="no"?> <!DOCTYPE svg PUBLIC "-//W3C//DTD SVG 20010904//EN" "http://www.w3.org/TR/2001/REC-SVG-20010904/DTD/svg10.dtd"> <svg version="1.0" xmlns="http://www.w3.org/2000/svg" width="600.000000pt" height="600.000000pt" viewBox="0 0 600.000000 600.000000" preserveAspectRatio="xMidYMid meet"> <g transform="translate(0.000000,600.000000) scale(0.050000,-0.050000)" fill="#373832" stroke="none"> <path d="M4430 10523 c-90 -56 -143 -124 -170 -215 -27 -92 -22 -128 81 -498 33 -121 82 -317 108 -436 71 -326 191 -453 403 -429 283 32 362 235 259 665 -49 206 -79 318 -174 655 -74 258 -312 379 -507 258z"/> <path d="M6165 10348 c-258 -131 -601 -1182 -451 -1384 196 -264 536 -171 638 175 98 334 134 433 231 626 136 273 122 436 -48 562 -75 56 -279 67 -370 21z"/> <path d="M2769 9692 c-249 -109 -247 -520 3 -624 203 -85 485 -282 648 -452 175 -184 374 -202 536 -50 168 157 136 367 -91 592 -400 395 -878 629 -1096 534z"/> <path d="M6648 8579 c-454 -90 -643 -436 -789 -1449 -73 -505 -82 -535 -130 -420 -365 869 -464 1061 -636 1236 -464 469 -1240 176 -1270 -481 -13 -297 66 -542 411 -1265 114 -239 286 -627 364 -824 l46 -114 -149 -146 c-628 -613 -397 -1678 520 -2396 61 -48 63 -54 46 -140 -118 -610 617 -1026 1663 -941 881 71 1359 496 1196 1061 -20 68 -17 73 86 170 325 307 554 853 554 1326 0 67 14 139 33 174 446 820 278 1442 -410 1525 l-128 15 -38 104 c-81 217 -309 384 -589 432 -95 16 -126 30 -119 49 19 49 126 490 174 715 76 355 69 774 -15 951 -149 315 -483 485 -820 418z m312 -496 c182 -135 172 -387 -50 -1312 -47 -199 -97 -414 -110 -478 -16 -77 -47 -148 -93 -208 -37 -49 -111 -177 -164 -284 -91 -185 -98 -194 -144 -177 -97 36 -343 22 -569 -33 -268 -65 -683 -151 -729 -151 -23 0 -54 51 -99 165 -104 258 -264 616 -432 965 -338 703 -376 1007 -142 1118 298 141 412 -23 982 -1408 189 -460 225 -504 417 -516 273 -18 306 75 493 1376 93 643 178 876 354 971 70 39 215 24 286 -28z m532 -2132 c210 -138 144 -514 -173 -981 -179 -264 -311 -349 -447 -287 -66 30 -71 47 -49 188 13 79 12 161 -2 243 -20 112 -17 135 26 250 201 535 420 734 645 587z m766 -546 c343 -175 -65 -1092 -486 -1093 -198 0 -261 149 -135 316 148 198 290 472 363 702 39 121 122 145 258 75z m-1951 -246 c276 -217 -138 -635 -695 -700 -447 -52 -380 -479 75 -479 323 0 574 -163 656 -426 85 -271 457 -245 457 32 0 136 -132 384 -286 536 l-123 123 60 47 c73 59 84 59 191 -1 115 -63 303 -96 408 -71 44 10 86 19 93 20 7 0 36 -40 65 -88 133 -227 457 -343 761 -273 103 24 103 26 52 -131 -139 -430 -464 -745 -855 -829 -169 -36 -246 -137 -217 -288 27 -146 151 -192 374 -137 174 42 178 41 163 -39 -88 -461 -1767 -510 -1960 -58 -38 91 -30 93 138 51 335 -83 496 -27 496 173 0 158 -73 217 -310 249 -798 109 -1478 1127 -1168 1748 118 235 286 327 788 433 187 39 408 87 490 108 203 50 283 50 347 0z"/> </g> </svg>